HIERARCHY
ROOT hip
{
  OFFSET 0 0 0
  CHANNELS 6 Xposition Yposition Zposition Zrotation Yrotation Xrotation
  JOINT abdomen
  {
    OFFSET 0 20.6881 -0.73152
    CHANNELS 3 Zrotation Xrotation Yrotation
    JOINT chest
    {
      OFFSET 0 11.7043 -0.48768
      CHANNELS 3 Zrotation Xrotation Yrotation
      JOINT neck
      {
        OFFSET 0 22.1894 -2.19456
        CHANNELS 3 Zrotation Xrotation Yrotation
        JOINT head
        {
          OFFSET -0.24384 7.07133 1.2192
          CHANNELS 3 Zrotation Xrotation Yrotation
          JOINT leftEye
          {
            OFFSET 4.14528 8.04674 8.04672
            CHANNELS 3 Zrotation Xrotation Yrotation
            End Site
            {
              OFFSET 1 0 0
            }
          }
          JOINT rightEye
          {
            OFFSET -3.6576 8.04674 8.04672
            CHANNELS 3 Zrotation Xrotation Yrotation
            End Site
            {
              OFFSET 1 0 0
            }
          }
        }
      }
      JOINT rCollar
      {
        OFFSET -2.68224 19.2634 -4.8768
        CHANNELS 3 Zrotation Xrotation Yrotation
        JOINT rShldr
        {
          OFFSET -8.77824 -1.95073 1.46304
          CHANNELS 3 Zrotation Xrotation Yrotation
          JOINT rForeArm
          {
            OFFSET -28.1742 -1.7115 0.48768
            CHANNELS 3 Zrotation Xrotation Yrotation
            JOINT rHand
            {
              OFFSET -22.5879 0.773209 7.07136
              CHANNELS 3 Zrotation Xrotation Yrotation
              JOINT rThumb1
              {
                OFFSET -1.2192 -0.487915 3.41376
                CHANNELS 3 Zrotation Xrotation Yrotation
                JOINT rThumb2
                {
                  OFFSET -3.37035 -0.52449 3.41376
                  CHANNELS 3 Zrotation Xrotation Yrotation
                  End Site
                  {
                    OFFSET -1.78271 -1.18214 1.43049
                  }
                }
              }
              JOINT rIndex1
              {
                OFFSET -7.75947 0.938293 5.60832
                CHANNELS 3 Zrotation Xrotation Yrotation
                JOINT rIndex2
                {
                  OFFSET -2.54057 -0.884171 1.56538
                  CHANNELS 3 Zrotation Xrotation Yrotation
                  End Site
                  {
                    OFFSET -1.62519 -0.234802 1.16502
                  }
                }
              }
              JOINT rMid1
              {
                OFFSET -8.24714 1.18213 3.41376
                CHANNELS 3 Zrotation Xrotation Yrotation
                JOINT rMid2
                {
                  OFFSET -3.10165 -0.590103 1.0647
                  CHANNELS 3 Zrotation Xrotation Yrotation
                  End Site
                  {
                    OFFSET -2.48547 -0.328903 0.83742
                  }
                }
              }
              JOINT rRing1
              {
                OFFSET -8.82822 0.546677 1.51678
                CHANNELS 3 Zrotation Xrotation Yrotation
                JOINT rRing2
                {
                  OFFSET -2.60934 -0.819778 -0.0198488
                  CHANNELS 3 Zrotation Xrotation Yrotation
                  End Site
                  {
                    OFFSET -2.33842 -0.294052 0.168128
                  }
                }
              }
              JOINT rPinky1
              {
                OFFSET -8.27202 -0.0477905 -0.4584
                CHANNELS 3 Zrotation Xrotation Yrotation
                JOINT rPinky2
                {
                  OFFSET -1.82734 -0.647385 -0.700984
                  CHANNELS 3 Zrotation Xrotation Yrotation
                  End Site
                  {
                    OFFSET -1.69225 -0.51767 -0.607171
                  }
                }
              }
            }
          }
        }
      }
      JOINT lCollar
      {
        OFFSET 2.68224 19.2634 -4.8768
        CHANNELS 3 Zrotation Xrotation Yrotation
        JOINT lShldr
        {
          OFFSET 8.77824 -1.95073 1.46304
          CHANNELS 3 Zrotation Xrotation Yrotation
          JOINT lForeArm
          {
            OFFSET 28.1742 -1.7115 0.48768
            CHANNELS 3 Zrotation Xrotation Yrotation
            JOINT lHand
            {
              OFFSET 22.5879 0.773209 7.07136
              CHANNELS 3 Zrotation Xrotation Yrotation
              JOINT lThumb1
              {
                OFFSET 1.2192 -0.487915 3.41376
                CHANNELS 3 Zrotation Xrotation Yrotation
                JOINT lThumb2
                {
                  OFFSET 3.37035 -0.52449 3.41376
                  CHANNELS 3 Zrotation Xrotation Yrotation
                  End Site
                  {
                    OFFSET 1.78271 -1.18214 1.43049
                  }
                }
              }
              JOINT lIndex1
              {
                OFFSET 7.75947 0.938293 5.60832
                CHANNELS 3 Zrotation Xrotation Yrotation
                JOINT lIndex2
                {
                  OFFSET 2.54057 -0.884171 1.56538
                  CHANNELS 3 Zrotation Xrotation Yrotation
                  End Site
                  {
                    OFFSET 1.62519 -0.234802 1.16502
                  }
                }
              }
              JOINT lMid1
              {
                OFFSET 8.24714 1.18213 3.41376
                CHANNELS 3 Zrotation Xrotation Yrotation
                JOINT lMid2
                {
                  OFFSET 3.10165 -0.590103 1.0647
                  CHANNELS 3 Zrotation Xrotation Yrotation
                  End Site
                  {
                    OFFSET 2.48547 -0.328903 0.83742
                  }
                }
              }
              JOINT lRing1
              {
                OFFSET 8.82822 0.546677 1.51678
                CHANNELS 3 Zrotation Xrotation Yrotation
                JOINT lRing2
                {
                  OFFSET 2.60934 -0.819778 -0.0198488
                  CHANNELS 3 Zrotation Xrotation Yrotation
                  End Site
                  {
                    OFFSET 2.33842 -0.294052 0.168128
                  }
                }
              }
              JOINT lPinky1
              {
                OFFSET 8.27202 -0.0477905 -0.4584
                CHANNELS 3 Zrotation Xrotation Yrotation
                JOINT lPinky2
                {
                  OFFSET 1.82734 -0.647385 -0.700984
                  CHANNELS 3 Zrotation Xrotation Yrotation
                  End Site
                  {
                    OFFSET 1.69225 -0.51767 -0.607171
                  }
                }
              }
            }
          }
        }
      }
    }
  }
  JOINT rButtock
  {
    OFFSET -8.77824 4.35084 1.2192
    CHANNELS 3 Zrotation Xrotation Yrotation
    JOINT rThigh
    {
      OFFSET 0 -1.70687 -2.19456
      CHANNELS 3 Zrotation Xrotation Yrotation
      JOINT rShin
      {
        OFFSET 0 -36.8199 0.73152
        CHANNELS 3 Zrotation Xrotation Yrotation
        JOINT rFoot
        {
          OFFSET 0.73152 -45.1104 -5.12064
          CHANNELS 3 Zrotation Xrotation Yrotation
          End Site
          {
            OFFSET -1.1221 -3.69964 12.103
          }
        }
      }
    }
  }
  JOINT lButtock
  {
    OFFSET 8.77824 4.35084 1.2192
    CHANNELS 3 Zrotation Xrotation Yrotation
    JOINT lThigh
    {
      OFFSET 0 -1.70687 -2.19456
      CHANNELS 3 Zrotation Xrotation Yrotation
      JOINT lShin
      {
        OFFSET 0 -36.8199 0.73152
        CHANNELS 3 Zrotation Xrotation Yrotation
        JOINT lFoot
        {
          OFFSET -0.73152 -45.1104 -5.12064
          CHANNELS 3 Zrotation Xrotation Yrotation
          End Site
          {
            OFFSET 1.1221 -3.69964 12.103
          }
        }
      }
    }
  }
}
MOTION
Frames:	9
Frame Time:	0.00833333
0.0 0.0 0.0 0.0 0.0 0.0 0.0 0.0 0.0 0.0 0.0 0.0 0.0 0.0 0.0 0.0 0.0 0.0 0.0 0.0 0.0 0.0 0.0 0.0 0.0 0.0 0.0 0.0 0.0 0.0 0.0 0.0 0.0 0.0 0.0 0.0 0.0 0.0 0.0 0.0 0.0 0.0 0.0 0.0 0.0 0.0 0.0 0.0 0.0 0.0 0.0 0.0 0.0 0.0 0.0 0.0 0.0 0.0 0.0 0.0 0.0 0.0 0.0 0.0 0.0 0.0 0.0 0.0 0.0 0.0 0.0 0.0 0.0 0.0 0.0 0.0 0.0 0.0 0.0 0.0 0.0 0.0 0.0 0.0 0.0 0.0 0.0 0.0 0.0 0.0 0.0 0.0 0.0 0.0 0.0 0.0 0.0 0.0 0.0 0.0 0.0 0.0 0.0 0.0 0.0 0.0 0.0 0.0 0.0 0.0 0.0 0.0 0.0 0.0 0.0 0.0 0.0 0.0 0.0 0.0 0.0 0.0 0.0 0.0 0.0 0.0 0.0 0.0 0.0 0.0 0.0 0.0
86.0219 83.6557 -6.0633 6.183249 -80.63706 -0.944701 -0.284739 -2.552167 -0.024532 1.311839 -0.479893 1.545053 -11.654018 13.926003 -75.996596 19.389059 13.679147 71.813725 -0.001478 0.0 -0.000949 -0.001681 -0.0 0.004739 0.163252 -0.989976 -0.21908 -111.229532 86.016655 138.262779 174.729267 -57.454735 178.94445 -8.68298 29.829733 1.622121 -166.507868 -4.18044 89.762094 -71.092589 0.199206 23.329925 -18.146705 23.164128 12.574932 -166.226693 -16.425854 110.411505 -160.342087 -5.644495 143.086231 86.522038 -77.968365 57.794346 -145.11984 0.26772 -179.21257 2.633909 -43.839097 -17.909166 -143.9359 8.26505 -140.720912 1.29219 -2.68602 -2.844662 0.217928 1.28736 -0.288982 -24.858048 -13.819682 2.940363 122.76376 60.53843 -94.839879 -128.086854 -67.330286 -109.673592 80.965185 38.736385 -44.499069 151.950821 -33.074607 -82.271425 148.884849 -12.610372 -120.244317 -12.069813 -2.69425 10.120649 -89.035607 -81.39275 -59.760794 -91.967168 -78.382033 -63.169871 0.020583 -1.725297 0.541568 15.469013 69.596252 -28.518048 -1.132898 3.040495 -1.046293 154.268582 36.62171 148.342913 179.994347 75.749393 0.004651 -177.496968 67.458302 -15.638832 -9.426259 14.113499 -55.608954 -40.407207 -71.789047 56.925474 -179.997281 75.749394 -0.001861 -176.488934 69.282582 -15.157862 -10.472512 12.223794 -89.423368 85.025337 -53.845843 176.563137
86.0319 83.6507 -6.0458 6.038823 -80.648959 -0.75253 -2.005728 -10.001103 173.271479 -2.210743 -4.100877 -170.454558 -13.076968 13.028854 -42.128233 30.058933 4.650198 33.529058 0.002052 -0.0 -0.003596 0.000832 0.0 0.001882 -0.273426 1.606774 0.361061 -122.100292 -1.099928 -179.725747 176.525261 40.442888 -161.974224 -10.774571 38.297719 3.021847 83.254158 -50.257845 33.615878 -21.5903 -16.952118 -20.187942 -151.351653 -17.158389 121.134191 -166.368487 -25.827477 119.140171 -89.835714 60.702317 81.262676 -42.135676 58.43358 36.402916 -74.840372 72.960542 92.828143 -158.63625 -28.227458 -179.76438 -4.128481 -9.746175 -3.860945 -75.850064 -54.848159 -75.714491 155.679248 -4.672331 -162.082526 30.884279 -16.504588 -15.622765 3.885122 -45.098561 64.300244 -171.054959 -25.754955 -142.414185 12.92591 12.051785 -3.310008 -8.550932 -7.73017 -1.919474 138.093094 5.494888 -114.615739 171.241909 -29.764041 -117.850517 89.834791 60.702079 -81.263057 -179.836836 -49.551356 -140.933631 145.119515 0.185338 179.186709 -11.133543 63.107765 0.724483 -2.975011 8.32836 -2.714487 12.603725 -29.389594 13.608585 179.999247 75.750207 0.000777 -179.928057 64.974249 -1.197552 -0.028305 29.726712 -166.58229 68.964878 -3.937739 168.265367 -179.97279 75.750206 -0.020972 -174.141502 63.357893 -94.300479 -27.480656 -6.671756 -35.405195 63.379813 -28.716239 150.635481
86.04690000000001 83.6434 -6.0185 5.832803 -80.706973 -0.471082 -1.201879 -8.32987 -44.750243 1.620935 0.751298 49.355884 1.621895 17.431361 66.521725 -17.5212 -23.276991 -84.181946 0.000228 -0.0 -0.000317 0.005586 -0.0 -0.000904 -13.743562 42.43156 15.569199 -100.905141 -5.75874 141.839048 -162.936647 43.987435 -170.569528 -2.501002 18.407565 1.42796 -68.482669 37.953579 35.659571 18.972964 -21.701356 18.434465 10.282516 -18.182476 -4.584475 -85.376447 47.606709 68.60819 -0.571639 1.648165 0.323107 91.952153 -78.578527 62.947375 0.003603 1.772348 0.556652 9.492366 8.600594 1.070379 -140.593886 -1.001637 -137.665327 -93.930402 -50.088618 -93.296759 83.674032 68.269751 -86.806234 107.49347 3.395728 -104.248939 123.811976 -4.182895 -168.134767 -45.765605 -71.095613 -30.541 170.622125 -8.305836 -89.949317 -178.538827 -17.605609 -94.179453 -73.420255 -73.571118 -26.56445 15.826322 39.778779 -12.473049 0.058351 0.167698 -0.03275 -91.951451 -78.577886 -62.951371 74.839244 72.962448 -92.827403 159.255922 25.760183 -172.894648 26.502684 -38.814429 25.544354 -8.684579 16.832974 -4.014388 -179.997458 75.750462 -0.001739 178.702903 62.715533 1.141013 -4.793842 24.708007 -44.610871 25.685008 -7.436417 34.073919 0.001011 0.000916 0.000505 1.881682 -15.371376 0.535011 6.717562 36.217971 120.115488 -17.262554 25.439906 -118.524565
86.05890000000001 83.638 -6.0153 5.652231 -80.752537 -0.232215 -1.634849 -12.989329 -123.557984 -2.918578 0.513223 129.134874 -17.575086 32.245967 -117.459731 22.62588 51.282886 94.265784 0.001902 -0.0 -0.000617 0.001902 -0.0 -0.000617 -155.548405 -3.804402 161.899556 -75.575421 11.656174 7.510808 -36.342824 -78.312051 -98.453874 150.097676 -45.996655 133.165332 -0.440514 0.435722 0.06956 39.381297 -62.79622 -17.063692 -14.228213 19.203054 9.561309 15.852336 -9.591121 -1.602352 -152.825555 14.793038 138.514605 177.30016 -53.070801 139.417482 0.000747 0.063664 0.020753 -75.670599 78.820471 89.067363 25.91716 79.093705 10.833574 -10.034426 -23.512865 -10.927248 3.670373 17.55218 -4.527632 -89.133869 24.65946 -11.782186 -6.516513 -69.484052 -47.833521 8.204385 6.304184 1.668458 -88.928384 -50.832223 -37.599421 89.753514 38.432818 -50.933289 153.451939 -21.067425 -121.746229 -11.166235 1.02773 9.745217 160.096535 -4.901091 -142.970166 163.282426 -4.787359 -142.967243 145.119606 0.310235 179.225453 -11.937841 52.756197 2.719205 -4.594035 13.360431 -4.154712 159.80781 55.518883 150.020009 -179.998248 75.748658 0.0 178.611075 61.118563 -14.972701 -13.407862 25.658664 -24.59588 -13.827727 -30.886478 28.959186 -179.98588 75.750395 -0.009661 -176.563478 55.114357 175.813066 -8.893624 -39.182635 -110.954973 -78.943227 48.691466 -24.725076
86.04690000000001 83.6429 -6.0079 5.66495 -80.75758 -0.301551 -3.18339 -9.985855 -17.783108 3.855583 -0.460194 23.43915 -0.82349 33.136581 138.928169 -46.210774 16.222573 -149.290275 0.004497 -0.0 -0.004029 0.000499 0.0 0.002407 -85.537513 68.182896 88.688939 73.26044 5.220301 88.627037 -40.732932 10.597938 -7.907341 27.470968 -47.143303 18.857784 1.841967 -1.827355 -0.253579 -86.271786 23.168272 78.573325 -153.453911 -21.067755 121.743989 -12.473572 37.072766 3.655786 0.048382 -0.138583 -0.02535 -172.072736 -31.344696 144.105997 -31.707961 -66.109105 -46.282944 11.059122 43.636145 3.83797 7.927486 24.811645 7.003808 -148.224406 13.027862 -143.897866 143.619548 38.232857 -148.079466 -92.955003 -2.177356 -126.667123 -42.799251 -66.938265 -84.224002 13.176386 20.543025 -0.574683 -177.525066 -19.766365 -88.836328 150.25102 8.794549 -81.752706 50.386622 40.825598 -40.025394 4.99619 16.553896 -1.277539 169.089488 -33.247478 -145.374551 163.865842 -6.227906 -143.130222 -0.005346 1.855564 -0.581728 -10.163627 0.207224 0.040157 -7.115766 21.89762 -6.331296 152.690399 29.116821 147.103153 -0.006441 -0.0 -0.003221 -0.603775 -15.241862 -25.929122 -9.323257 33.851782 129.264747 -117.771409 -41.847038 176.792191 0.000402 0.001531 -0.000517 2.238356 -19.412034 0.786236 5.267847 34.405728 14.708639 28.985039 -28.098772 -13.866545
86.0279 83.6506 -6.0067 5.508807 -80.707565 -0.233004 -3.859942 -14.489997 -180.0 -4.169877 -2.93132 -175.025023 -19.29478 31.961765 -109.400427 30.856972 50.070278 81.803784 -3.6e-05 -0.0 0.001068 -3.6e-05 -0.0 0.001068 -142.973091 39.431423 147.389703 -61.580176 -22.009718 53.929086 27.98121 -3.405364 -54.773619 171.050546 -3.001644 147.721156 -0.440421 0.435753 0.069666 -104.198675 9.202476 95.131924 -108.426149 34.160363 91.743135 5.733894 1.264296 -6.382311 -0.057144 0.167973 0.031937 91.951332 -78.577882 62.951889 0.006413 1.771395 0.556387 9.559602 -62.554794 -9.186858 9.907798 32.23843 8.581603 -163.528815 64.035855 -149.500317 40.038493 -86.056058 61.570284 -106.82508 12.560992 100.137674 173.35225 58.291417 -95.752986 -177.159041 -13.395321 -143.437762 78.030381 38.689375 -42.412854 135.974746 -25.406499 -82.4668 145.338824 -6.265009 -118.676523 6.145315 27.84963 1.745168 169.088667 -33.247648 -145.374361 -80.937371 -77.653573 -52.581096 145.120549 1.976343 179.748999 145.199278 -50.815914 167.342726 158.215503 60.369893 150.797242 1.870296 -8.10772 4.395831 0.007654 -0.000167 0.007654 -1.542415 -17.128575 154.126535 21.333615 -27.788562 143.948661 89.021259 29.943087 15.583173 0.001774 0.000926 0.002661 2.411905 -21.50175 -177.102342 5.067611 -41.622399 90.79573 172.239961 43.096965 -85.577064
86.0279 83.6506 -6.018 5.202617 -80.662463 0.080037 -5.650523 -10.328119 55.553235 2.628593 -5.361971 -50.99061 -10.133181 35.721979 -165.227224 -26.665747 47.970378 165.359075 -0.000919 -0.0 0.000171 -0.000919 -0.0 0.000171 -9.651742 34.836355 11.198253 -88.037222 -21.215744 146.530987 32.098724 -38.113326 -38.178103 170.065682 -6.327142 147.197351 -171.705718 -9.388464 89.949603 -34.786935 -26.968326 4.661871 -145.0852 -5.825617 118.555559 -168.994551 -28.293394 118.605979 -125.643081 49.840106 115.274792 -42.229498 58.378243 36.491962 0.000378 0.06373 0.02077 -155.832047 -7.866074 172.800436 -150.576885 31.034254 -146.363241 2.904063 2.441364 -1.196124 153.590998 -75.693445 178.260963 -88.192144 23.221271 112.312812 -174.584366 30.834453 -104.937534 -178.214397 -6.360209 -143.617147 3.909155 3.810807 -0.727623 133.364824 -33.866141 -115.209431 -10.747334 -19.04793 4.724902 -170.471567 -46.958314 -99.630304 -23.901937 -61.334162 -1.398842 4.932152 20.753433 -4.364741 -0.004373 0.91812 -0.286123 155.911831 -54.300823 -178.957155 20.141559 -33.377633 19.312239 -1.044324 -5.457004 1.998021 -179.995429 75.749382 -0.004716 178.340298 61.202358 1.438652 -1.169929 38.977357 -156.45776 -89.160514 61.68263 -157.215581 0.050965 7.1e-05 0.038223 2.354473 -20.817175 -180.0 -9.187648 -39.576623 -114.414374 -13.853199 -34.115365 -76.58566
86.0239 83.64819999999999 -6.0222 5.210781 -80.645819 0.119755 -1.537051 -12.889148 -127.678839 -2.671312 0.302198 132.568863 0.892436 21.664859 78.247959 -27.521532 -23.376221 -99.779317 0.000414 0.0 0.000613 -0.0048 -0.0 0.001399 -9.651511 34.836262 11.198864 -91.034744 -22.033435 146.33434 29.845146 -44.992201 -38.412743 168.432337 -11.400444 146.331815 -95.360552 37.751154 54.683101 57.239042 -43.376752 28.086387 -6.666953 9.980099 4.146015 -8.991411 23.870127 7.239082 -89.834891 60.702463 81.263108 -4.604193 20.797152 4.469115 -73.162762 -72.141811 -90.198453 -149.828988 -27.292188 -179.862289 -148.608821 23.707807 -144.778039 -25.87838 -40.226809 -26.971703 -0.163115 -0.990086 0.218159 78.987208 -14.553675 170.454004 -51.44136 -15.491549 46.616068 168.227738 34.18577 -139.214514 166.631236 -4.304883 -89.771633 132.636369 8.850921 -64.818301 140.684421 1.505435 -116.182528 165.497727 -19.940701 -118.999318 -6.534234 -20.414756 2.717656 -5.094422 -5.875091 0.688083 0.020935 -1.725987 0.542879 61.225039 -86.800888 82.914923 100.235988 -46.593151 98.448759 -3.379787 0.037815 1.199756 -179.997118 75.749639 -0.0 178.535943 61.464196 1.666399 8.827038 33.049653 104.277228 53.823172 69.772041 -159.817891 -0.0 0.000208 0.000334 2.469366 -20.422036 -180.0 6.261299 -44.430095 45.387742 77.383978 -15.070055 151.824886
